<?xml version="1.0" standalone="no"?>
<!DOCTYPE svg PUBLIC "-//W3C//DTD SVG 20010904//EN"
 "http://www.w3.org/TR/2001/REC-SVG-20010904/DTD/svg10.dtd">
<svg version="1.0" xmlns="http://www.w3.org/2000/svg"
 width="300.000000pt" height="288.000000pt" viewBox="0 0 300.000000 288.000000"
 preserveAspectRatio="xMidYMid meet">

<g transform="translate(0.000000,288.000000) scale(0.100000,-0.100000)"
fill="#000000" stroke="none">
<path d="M1261 2612 c-77 -12 -121 -97 -91 -176 8 -23 5 -26 -38 -47 -102 -50
-243 -223 -337 -414 -200 -410 -178 -799 68 -1190 28 -44 62 -92 75 -107 24
-26 25 -29 14 -95 -6 -37 -14 -105 -18 -150 -5 -65 -10 -83 -22 -83 -8 0 -72
19 -141 42 -217 71 -327 64 -486 -30 -98 -58 -194 -135 -195 -156 0 -21 8 -20
107 15 l62 21 121 -31 c67 -17 137 -31 156 -31 18 0 98 -21 176 -46 230 -75
358 -73 604 7 66 21 130 39 140 39 11 0 67 -16 124 -35 257 -86 425 -87 653
-1 37 15 109 33 160 40 51 8 127 24 170 35 84 22 145 18 206 -14 81 -41 80 0
0 63 -151 118 -273 174 -381 173 -77 0 -111 -8 -256 -57 -56 -19 -126 -36
-154 -37 l-52 -2 -24 150 -24 150 87 130 c135 201 191 328 220 492 48 276 -26
580 -212 867 -55 85 -172 209 -230 243 -41 24 -42 26 -28 46 19 27 19 90 1
126 -21 40 -59 61 -110 61 -80 0 -137 -76 -115 -153 5 -17 9 -35 9 -38 0 -14
-105 -28 -116 -16 -2 2 3 21 11 44 31 91 -41 180 -134 165z m81 -75 c36 -46
12 -108 -47 -123 -51 -13 -105 50 -85 100 21 57 96 70 132 23z m314 10 c20
-17 27 -33 27 -57 0 -38 -40 -80 -77 -80 -49 0 -89 68 -65 112 28 52 72 62
115 25z m-295 -187 c81 -25 146 -66 227 -143 198 -189 332 -442 391 -734 50
-249 33 -457 -51 -655 -11 -27 -24 -48 -28 -48 -4 0 -34 18 -66 39 -216 144
-653 135 -852 -16 -23 -18 -44 -33 -47 -33 -3 0 -25 31 -50 69 -76 117 -140
281 -165 419 -17 94 -14 279 6 375 48 240 184 499 338 645 107 101 175 120
297 82z m340 -10 c62 -31 184 -161 247 -263 190 -305 250 -627 168 -907 -25
-85 -75 -205 -82 -197 -2 2 1 30 7 63 7 36 9 121 6 219 -10 302 -96 563 -265
799 -66 92 -188 220 -249 261 -24 15 -43 31 -43 36 0 26 152 18 211 -11z
m-301 -1525 l0 -45 -45 0 c-63 0 -183 -26 -285 -60 -80 -28 -86 -29 -98 -12
-11 15 -8 21 20 45 81 68 217 115 341 116 l67 1 0 -45z m222 30 c112 -24 248
-94 248 -129 0 -32 -22 -34 -99 -6 -95 35 -213 60 -281 60 l-50 0 0 45 0 45
54 0 c30 0 88 -7 128 -15z m36 -150 c31 -9 83 -25 114 -37 51 -18 58 -24 63
-52 3 -17 9 -53 14 -81 5 -27 8 -51 7 -53 -2 -1 -37 7 -80 18 -127 32 -240 43
-396 37 -136 -5 -291 -29 -363 -56 -16 -6 -30 -11 -31 -11 -2 0 1 26 5 58 19
127 14 117 77 140 192 69 424 84 590 37z m-18 -226 c36 -5 100 -19 143 -31 65
-17 78 -24 83 -45 4 -13 4 -26 1 -29 -3 -4 -32 3 -64 14 -218 76 -534 72 -766
-7 l-57 -20 0 30 c0 35 12 41 140 70 163 37 347 43 520 18z m-894 -130 c68
-22 154 -46 191 -54 38 -7 106 -25 153 -40 47 -14 128 -31 180 -38 l95 -14
-96 -31 c-53 -17 -135 -36 -183 -42 -126 -16 -206 -3 -410 65 -57 19 -121 35
-143 35 -22 0 -75 10 -119 21 -43 12 -99 24 -124 28 l-45 6 55 34 c30 19 84
45 120 58 87 32 163 25 326 -28z m910 25 c39 -8 95 -21 125 -30 53 -16 53 -16
28 -29 -43 -23 -172 -53 -279 -65 -123 -15 -282 -1 -408 34 -92 26 -103 33
-82 46 24 15 184 51 262 60 92 11 262 3 354 -16z m899 -23 c44 -21 89 -46 100
-55 19 -15 19 -15 -15 -16 -19 0 -67 -9 -105 -20 -39 -11 -104 -25 -146 -30
-41 -6 -127 -28 -190 -49 -206 -70 -324 -74 -522 -16 -83 24 -137 43 -126 44
43 5 185 37 242 55 39 13 106 27 148 30 49 3 120 20 200 47 161 53 191 59 269
54 49 -4 84 -14 145 -44z"/>
<path d="M1277 1902 l-57 -58 25 -24 c23 -22 25 -30 25 -122 l0 -98 -107 0
c-100 0 -109 2 -133 25 l-26 25 -59 -60 -60 -60 57 -57 57 -57 29 27 c27 26
32 27 135 27 l107 0 0 -122 c0 -116 -1 -123 -25 -148 l-25 -26 58 -57 58 -57
57 58 57 58 -25 24 c-24 23 -25 28 -25 147 l0 123 107 0 c103 0 108 -1 135
-27 l28 -27 55 54 c30 30 55 59 55 65 0 6 -24 34 -53 63 l-53 52 -24 -25 c-22
-24 -29 -25 -137 -25 l-113 0 0 97 c0 90 2 99 25 123 l25 26 -58 57 -58 57
-57 -58z m115 -85 c-20 -21 -22 -34 -22 -135 l0 -112 132 0 c109 0 135 3 150
17 18 16 21 15 56 -20 l36 -37 -34 -35 -34 -35 -21 20 c-19 18 -35 20 -153 20
l-132 0 0 -142 c0 -132 1 -143 22 -165 l22 -24 -37 -36 -37 -37 -40 39 -40 39
20 21 c18 19 20 35 20 163 l0 142 -127 0 c-113 0 -129 -2 -148 -20 l-21 -20
-37 38 -37 38 35 34 c33 32 36 33 53 17 15 -14 41 -17 150 -17 l132 0 0 118
c0 107 -2 121 -20 137 -20 19 -20 19 17 57 l37 38 40 -40 40 -39 -22 -24z"/>
</g>
</svg>
