<?xml version="1.0" standalone="no"?>
<!DOCTYPE svg PUBLIC "-//W3C//DTD SVG 20010904//EN"
 "http://www.w3.org/TR/2001/REC-SVG-20010904/DTD/svg10.dtd">
<svg version="1.0" xmlns="http://www.w3.org/2000/svg"
 width="287.000000pt" height="290.000000pt" viewBox="0 0 287.000000 290.000000"
 preserveAspectRatio="xMidYMid meet">

<g transform="translate(0.000000,290.000000) scale(0.100000,-0.100000)"
fill="#000000" stroke="none">
<path d="M1255 2686 c-51 -23 -70 -52 -70 -110 0 -28 4 -58 8 -66 6 -12 -3
-20 -35 -35 -57 -24 -172 -141 -237 -240 -111 -169 -205 -403 -231 -574 -32
-210 26 -512 132 -690 45 -76 133 -206 147 -217 12 -9 11 -30 -3 -140 -9 -71
-16 -146 -16 -166 0 -33 -3 -38 -23 -38 -13 0 -83 20 -155 46 -210 72 -310 63
-476 -40 -39 -25 -87 -58 -106 -75 l-35 -31 40 16 c54 22 117 20 199 -5 37
-12 105 -25 150 -30 45 -5 120 -24 166 -41 139 -50 195 -62 309 -61 107 0 241
27 334 66 21 9 61 20 88 25 46 9 62 6 157 -26 157 -52 223 -65 331 -65 107 -1
186 15 311 61 48 18 121 36 168 41 45 5 121 20 167 34 87 25 114 24 210 -11
45 -16 -116 100 -190 136 -141 71 -228 71 -425 0 -63 -22 -138 -43 -167 -46
-49 -6 -52 -5 -57 17 -5 21 -31 198 -43 289 -4 31 3 45 55 113 116 153 193
306 233 461 27 104 36 272 19 373 -26 168 -120 400 -228 565 -59 90 -177 217
-225 243 -33 17 -34 19 -21 44 23 44 18 105 -13 141 -33 40 -67 53 -115 45
-71 -12 -114 -82 -95 -154 10 -38 2 -47 -50 -57 -55 -10 -65 -1 -47 42 26 62
0 129 -61 158 -40 19 -60 20 -100 2z m427 -53 c40 -46 28 -104 -26 -129 -33
-16 -35 -16 -64 5 -35 25 -46 51 -36 84 12 39 35 57 74 57 23 0 43 -7 52 -17z
m36 -199 c118 -59 279 -290 383 -551 93 -233 96 -471 10 -695 -33 -83 -90
-202 -96 -196 -2 1 6 39 17 83 30 117 30 350 -1 495 -43 206 -117 389 -219
544 -57 86 -208 246 -273 288 -27 17 -49 35 -49 39 0 11 34 16 111 18 52 1 76
-4 117 -25z m-306 -527 c-21 -22 -22 -32 -20 -138 l3 -114 124 -3 c116 -2 125
-1 148 20 l23 22 40 -39 40 -39 -40 -40 -39 -40 -24 22 c-21 20 -33 22 -150
22 l-127 0 0 -137 c0 -127 2 -138 22 -160 l22 -23 -39 -40 -39 -40 -40 40 -40
39 22 24 c20 22 22 33 22 160 l0 137 -127 0 c-117 0 -129 -2 -150 -22 l-23
-22 -40 39 -40 39 39 39 39 39 29 -21 c26 -20 39 -21 148 -19 l120 3 3 114 c2
106 1 116 -20 138 l-22 23 39 40 39 40 40 -40 40 -39 -22 -24z m255 -933 c69
-15 172 -62 218 -99 47 -39 21 -41 -37 -3 -29 19 -62 40 -73 45 -183 95 -614
63 -748 -55 -9 -8 -20 -12 -25 -8 -9 10 31 42 90 72 130 66 396 88 575 48z
m-52 -135 c77 -14 225 -61 225 -72 0 -5 -8 -7 -17 -4 -10 2 -57 16 -105 30
-179 53 -377 53 -556 0 -48 -14 -95 -28 -104 -30 -10 -3 -18 -1 -18 5 0 21
184 70 320 86 46 5 191 -3 255 -15z m142 -281 c57 -14 106 -28 110 -31 16 -17
-9 -16 -81 3 -197 50 -450 52 -651 6 -123 -29 -125 -29 -125 -17 0 9 95 35
185 51 33 5 71 12 85 14 14 3 104 3 200 1 141 -3 195 -8 277 -27z m-72 -93
c39 -8 94 -22 124 -32 l53 -16 -27 -15 c-66 -34 -220 -64 -355 -69 -148 -6
-253 8 -380 48 -62 19 -70 24 -56 35 21 15 168 52 256 64 88 12 299 4 385 -15z"/>
</g>
</svg>
