<?xml version="1.0" standalone="no"?>
<!DOCTYPE svg PUBLIC "-//W3C//DTD SVG 20010904//EN"
 "http://www.w3.org/TR/2001/REC-SVG-20010904/DTD/svg10.dtd">
<svg version="1.0" xmlns="http://www.w3.org/2000/svg"
 width="261.000000pt" height="292.000000pt" viewBox="0 0 261.000000 292.000000"
 preserveAspectRatio="xMidYMid meet">

<g transform="translate(0.000000,292.000000) scale(0.100000,-0.100000)"
fill="#000000" stroke="none">
<path d="M980 2090 c0 -262 3 -327 15 -357 8 -19 15 -36 15 -38 0 -1 -24 -7
-53 -14 -48 -10 -58 -9 -100 9 -134 59 -312 77 -426 41 -206 -64 -327 -247
-307 -466 19 -207 100 -362 281 -540 133 -130 145 -150 145 -244 0 -40 -5 -91
-12 -113 -8 -26 -8 -42 -1 -49 18 -18 192 -89 281 -115 318 -92 673 -88 984
12 122 39 268 102 268 115 0 4 -7 38 -16 76 -17 72 -13 137 11 183 8 15 56 66
109 114 193 177 288 354 303 565 13 199 -80 362 -254 444 -119 55 -301 48
-467 -19 -51 -21 -64 -22 -105 -13 -77 18 -75 17 -60 36 11 13 15 87 17 355
l3 338 -316 0 -315 0 0 -320z m540 266 c0 -6 -218 -196 -226 -196 -6 0 -112
93 -209 182 -19 17 -13 18 208 18 125 0 227 -2 227 -4z m-382 -119 c55 -48
105 -94 111 -101 10 -11 -10 -34 -101 -115 -62 -56 -116 -101 -120 -101 -5 0
-8 93 -8 206 0 121 4 204 9 202 5 -1 54 -42 109 -91z m432 -113 c0 -125 -4
-204 -9 -202 -6 2 -60 48 -121 102 -92 82 -109 101 -98 112 44 44 214 193 221
194 4 0 7 -93 7 -206z m-192 -101 c41 -38 94 -85 116 -105 l41 -37 -233 -1
c-142 0 -232 4 -230 9 4 14 211 200 222 200 5 1 43 -29 84 -66z m-244 -215
c-20 -18 -43 -47 -51 -65 -7 -18 -18 -33 -23 -33 -17 0 -30 37 -30 84 l0 46
70 0 71 0 -37 -32z m436 2 c0 -30 -24 -100 -34 -100 -3 0 -12 15 -19 33 -8 18
-31 47 -51 65 l-37 32 71 0 70 0 0 -30z m-160 -13 c111 -59 96 -178 -29 -222
-82 -29 -170 -13 -227 41 -61 57 -41 139 44 184 54 28 156 27 212 -3z m-741
-98 c91 -14 155 -38 247 -89 142 -81 331 -291 371 -414 l9 -29 33 64 c79 153
202 283 351 373 96 58 164 83 270 98 303 45 523 -167 481 -464 -24 -173 -110
-339 -239 -461 l-30 -29 -98 30 c-479 145 -1063 145 -1528 1 l-99 -30 -34 33
c-53 50 -122 146 -158 218 -113 227 -104 444 26 585 97 106 226 142 398 114z
m426 -76 c12 -22 40 -50 69 -68 45 -27 57 -30 135 -30 69 0 94 5 127 22 45 24
94 76 94 99 0 12 9 14 48 8 77 -11 78 -16 15 -60 -78 -54 -174 -153 -232 -240
l-49 -72 -48 71 c-59 86 -166 195 -240 244 -30 20 -52 38 -50 41 6 6 66 20 91
21 13 1 27 -11 40 -36z m590 -807 c163 -24 400 -82 424 -102 2 -2 -17 -26 -43
-55 -29 -32 -50 -68 -57 -94 l-11 -43 -71 24 c-194 66 -387 97 -612 97 -229 1
-441 -32 -634 -98 -90 -30 -91 -30 -91 -5 0 35 -27 87 -69 133 l-41 44 88 26
c117 34 257 63 372 76 52 6 109 13 125 15 70 10 525 -3 620 -18z m-150 -227
c114 -13 244 -42 367 -82 l96 -31 7 -44 c4 -24 5 -46 3 -48 -2 -2 -38 10 -79
27 -126 52 -324 97 -479 111 -246 21 -520 -17 -749 -103 -58 -21 -106 -37
-108 -35 -3 2 -2 24 2 48 l7 44 96 32 c273 88 546 115 837 81z m97 -138 c98
-20 286 -79 336 -105 l27 -14 -50 -22 c-180 -78 -366 -119 -575 -127 -182 -7
-316 6 -475 47 -111 28 -270 85 -280 99 -10 18 242 100 385 125 132 24 143 24
345 21 138 -3 216 -9 287 -24z"/>
<path d="M1253 772 c-29 -15 -53 -29 -53 -32 0 -4 23 -17 50 -30 l51 -24 56
28 c30 15 54 28 52 30 -2 2 -26 15 -54 29 l-50 25 -52 -26z"/>
<path d="M785 709 c-22 -16 -41 -33 -43 -38 -1 -4 22 -14 53 -23 l55 -15 51
35 51 36 -48 17 c-66 24 -73 23 -119 -12z"/>
<path d="M1703 722 l-53 -17 54 -37 54 -38 44 15 c23 9 49 18 57 20 9 4 -3 18
-35 40 -55 39 -51 39 -121 17z"/>
</g>
</svg>
