<?xml version="1.0" standalone="no"?>
<!DOCTYPE svg PUBLIC "-//W3C//DTD SVG 20010904//EN"
 "http://www.w3.org/TR/2001/REC-SVG-20010904/DTD/svg10.dtd">
<svg version="1.0" xmlns="http://www.w3.org/2000/svg"
 width="262.000000pt" height="268.000000pt" viewBox="0 0 262.000000 268.000000"
 preserveAspectRatio="xMidYMid meet">

<g transform="translate(0.000000,268.000000) scale(0.100000,-0.100000)"
fill="#000000" stroke="none">
<path d="M1036 2018 c-8 -324 -6 -340 40 -389 l25 -27 -45 -6 c-25 -4 -46 -10
-46 -14 0 -4 23 -22 51 -41 71 -48 182 -162 231 -237 23 -35 45 -64 48 -64 3
0 26 30 50 67 51 78 141 171 225 233 57 42 59 44 35 51 -14 4 -38 7 -54 8
l-28 1 31 35 31 36 0 324 0 325 -294 0 -293 0 -7 -302z m542 264 c9 -7 12 -60
10 -233 l-3 -224 -252 -3 -253 -2 0 228 c0 126 3 232 7 235 9 10 475 8 491 -1z
m-178 -493 c67 -15 119 -53 142 -105 25 -57 17 -93 -29 -145 -46 -50 -114 -73
-199 -66 -109 8 -182 66 -191 151 -8 70 52 137 144 162 59 16 76 16 133 3z"/>
<path d="M1130 2256 c0 -2 45 -45 101 -95 l101 -91 37 30 c20 16 68 59 106 94
l70 65 -207 1 c-115 0 -208 -2 -208 -4z"/>
<path d="M1100 2051 l0 -192 105 93 c58 51 105 96 105 99 0 5 -47 48 -187 173
l-23 19 0 -192z"/>
<path d="M1462 2151 c-57 -51 -102 -97 -100 -102 2 -5 48 -49 103 -98 l100
-89 3 94 c1 52 1 138 0 191 l-3 98 -103 -94z"/>
<path d="M1290 1997 c-19 -17 -64 -58 -100 -89 l-65 -58 207 0 208 0 -99 90
c-55 50 -103 90 -108 90 -4 0 -24 -15 -43 -33z"/>
<path d="M1234 1751 c-198 -90 -40 -311 178 -247 140 40 161 184 36 245 -57
27 -156 28 -214 2z"/>
<path d="M510 1647 c-114 -27 -193 -79 -251 -164 -92 -133 -94 -346 -5 -538
49 -106 85 -155 222 -296 116 -120 123 -129 134 -184 12 -56 8 -100 -16 -183
-6 -20 1 -25 61 -53 424 -192 954 -190 1378 6 51 24 58 30 52 49 -27 86 -28
181 -3 231 6 11 65 76 133 145 67 69 136 147 154 173 87 129 138 301 128 431
-13 175 -102 299 -259 364 -54 22 -78 26 -168 26 -117 0 -205 -21 -315 -76
-158 -80 -302 -218 -385 -369 l-27 -50 -33 58 c-107 191 -317 358 -523 417
-80 23 -209 29 -277 13z m1125 -822 c160 -17 294 -42 430 -81 99 -28 108 -33
96 -52 -6 -11 -29 -7 -112 16 -434 125 -1008 124 -1428 -3 -100 -30 -114 -31
-109 -8 6 34 280 101 518 128 161 18 434 18 605 0z m-250 -117 c25 -12 45 -25
45 -28 0 -3 -20 -16 -45 -28 l-45 -22 -45 22 c-25 12 -45 25 -45 28 0 5 72 45
87 49 1 1 23 -9 48 -21z m-474 -49 c53 -18 54 -25 7 -56 l-43 -29 -54 16 -54
17 44 31 c50 35 54 36 100 21z m959 -21 l44 -32 -55 -17 -54 -16 -42 30 c-47
33 -47 36 0 54 49 18 59 16 107 -19z m-274 -83 c179 -28 424 -98 424 -121 0
-23 -13 -22 -105 7 -411 130 -748 128 -1172 -8 -45 -15 -85 -24 -89 -20 -18
17 13 36 103 65 167 52 300 79 488 96 66 6 254 -4 351 -19z m-12 -121 c120
-18 259 -54 376 -96 95 -34 109 -43 93 -59 -8 -8 -38 -1 -109 24 -119 43 -237
74 -359 94 -109 17 -349 19 -465 3 -116 -16 -287 -61 -393 -104 -98 -40 -120
-44 -115 -20 7 36 289 129 475 158 123 20 373 20 497 0z"/>
</g>
</svg>
