<?xml version="1.0" standalone="no"?>
<!DOCTYPE svg PUBLIC "-//W3C//DTD SVG 20010904//EN"
 "http://www.w3.org/TR/2001/REC-SVG-20010904/DTD/svg10.dtd">
<svg version="1.0" xmlns="http://www.w3.org/2000/svg"
 width="281.000000pt" height="292.000000pt" viewBox="0 0 281.000000 292.000000"
 preserveAspectRatio="xMidYMid meet">

<g transform="translate(0.000000,292.000000) scale(0.100000,-0.100000)"
fill="#000000" stroke="none">
<path d="M843 2588 c-5 -7 -18 -67 -28 -133 l-18 -119 -97 -102 c-129 -135
-162 -193 -168 -293 -3 -54 -12 -91 -30 -126 -26 -53 -259 -463 -272 -480 -5
-5 -18 -38 -29 -72 -25 -75 -27 -152 -5 -199 36 -75 157 -161 200 -142 18 8
28 6 50 -11 33 -26 98 -28 135 -3 15 9 57 54 93 99 47 58 90 98 144 135 42 28
105 80 140 115 l62 63 31 -16 c47 -24 123 -20 181 10 l48 25 0 -52 c0 -29 -5
-81 -11 -116 -32 -199 -117 -313 -401 -537 -86 -69 -177 -148 -202 -176 -44
-50 -106 -154 -106 -177 0 -8 286 -11 1045 -11 l1045 0 0 58 c0 33 -3 100 -7
151 -6 89 -7 93 -36 107 l-29 16 33 34 c18 19 28 34 22 34 -6 0 -14 21 -18 48
-3 26 -15 86 -27 135 -18 78 -23 89 -50 103 l-31 16 20 20 c20 20 20 21 3 79
-10 32 -33 96 -51 143 -29 73 -38 86 -61 92 -27 5 -27 6 -13 33 13 27 12 33
-49 142 -47 85 -70 115 -87 119 -19 5 -23 12 -21 35 4 44 -123 218 -164 225
-24 4 -29 9 -26 31 2 21 -13 44 -78 112 -56 60 -89 87 -108 89 -20 2 -26 8
-24 23 2 20 -92 108 -181 167 l-39 26 -76 -24 -76 -23 -51 29 c-27 16 -55 33
-62 38 -7 4 -24 55 -38 112 -47 189 -55 191 -180 50 -48 -55 -91 -100 -95
-100 -5 0 -40 44 -79 99 -77 109 -104 129 -128 99z m803 -474 l86 -77 39 22
c35 20 59 21 59 3 0 -4 -16 -16 -35 -26 -19 -11 -35 -22 -35 -25 0 -3 26 -35
58 -71 31 -36 67 -79 80 -95 22 -27 25 -28 55 -16 57 23 67 24 67 8 0 -8 -14
-20 -30 -27 -17 -7 -33 -16 -35 -21 -3 -4 26 -53 64 -109 39 -56 71 -106 73
-111 2 -6 24 -1 52 10 56 25 66 26 66 7 0 -8 -20 -22 -45 -32 -25 -9 -45 -20
-45 -23 0 -6 118 -240 126 -250 2 -2 24 4 50 13 25 8 50 13 55 10 19 -11 7
-23 -42 -39 -40 -14 -49 -20 -43 -34 3 -9 27 -77 52 -151 25 -74 46 -136 47
-137 0 -1 23 4 50 12 26 8 50 13 53 10 13 -13 -12 -34 -53 -44 -34 -9 -45 -16
-41 -26 11 -30 46 -227 46 -262 l0 -36 61 6 c52 4 60 3 57 -11 -2 -11 -15 -18
-33 -20 -76 -7 -72 1 -67 -127 4 -94 2 -115 -10 -115 -11 0 -16 35 -26 163
-24 323 -90 570 -229 853 -126 259 -276 467 -488 680 -119 119 -154 164 -129
164 2 0 43 -34 90 -76z m-636 -34 c0 -11 -7 -23 -15 -26 -11 -5 -13 -16 -8
-49 11 -81 -59 -155 -146 -155 -58 0 -81 21 -81 72 0 48 39 111 82 135 33 17
117 41 151 42 11 1 17 -6 17 -19z m368 -447 c-3 -50 -14 -113 -25 -145 l-19
-57 44 32 c52 37 96 91 117 141 19 44 49 51 39 9 -15 -58 -90 -147 -167 -198
-15 -9 -27 -21 -27 -25 0 -14 115 -29 153 -20 38 8 47 5 47 -16 0 -24 -84 -27
-167 -8 -43 10 -84 18 -90 17 -17 -1 -18 -2 23 100 28 70 38 110 42 174 4 64
8 83 20 83 12 0 14 -15 10 -87z m-788 -83 c0 -18 -72 -99 -123 -139 -80 -62
-98 -112 -71 -204 6 -18 4 -18 -26 -2 -20 10 -48 15 -71 13 -23 -2 -40 1 -43
8 -7 19 4 24 51 24 39 0 43 2 43 25 0 53 32 104 106 170 41 37 81 79 91 95 14
25 43 32 43 10z"/>
<path d="M880 2037 c-54 -27 -92 -79 -88 -122 3 -28 6 -30 46 -33 37 -3 47 1
77 31 44 44 53 78 28 117 l-19 30 -44 -23z"/>
</g>
</svg>
