<?xml version="1.0" standalone="no"?>
<!DOCTYPE svg PUBLIC "-//W3C//DTD SVG 20010904//EN"
 "http://www.w3.org/TR/2001/REC-SVG-20010904/DTD/svg10.dtd">
<svg version="1.0" xmlns="http://www.w3.org/2000/svg"
 width="278.000000pt" height="268.000000pt" viewBox="0 0 278.000000 268.000000"
 preserveAspectRatio="xMidYMid meet">

<g transform="translate(0.000000,268.000000) scale(0.100000,-0.100000)"
fill="#000000" stroke="none">
<path d="M1532 2478 c-5 -7 -22 -62 -37 -123 -15 -60 -33 -117 -41 -126 -8 -9
-38 -29 -66 -44 l-51 -28 -78 23 -78 22 -53 -37 c-106 -76 -169 -136 -163
-156 5 -15 1 -19 -20 -19 -20 0 -47 -21 -111 -87 -73 -76 -84 -92 -79 -115 4
-24 1 -28 -19 -28 -26 0 -62 -40 -135 -148 -30 -45 -41 -70 -37 -86 4 -17 0
-24 -22 -32 -21 -8 -41 -36 -86 -123 -49 -96 -57 -116 -48 -136 12 -26 7 -35
-20 -35 -20 0 -33 -26 -86 -182 l-37 -106 20 -23 c14 -15 16 -23 8 -26 -41
-14 -53 -40 -78 -168 -15 -71 -28 -132 -31 -134 -2 -3 8 -18 23 -34 16 -17 23
-31 17 -34 -38 -14 -47 -31 -55 -114 -4 -46 -8 -114 -8 -151 l-1 -68 1050 0
c578 0 1050 2 1050 5 0 17 -59 118 -96 165 -48 60 -84 93 -249 222 -191 149
-303 280 -344 404 -19 57 -41 195 -41 258 0 28 1 28 19 12 44 -40 170 -59 207
-31 10 8 24 15 31 15 6 0 40 -28 75 -63 34 -35 97 -86 139 -115 55 -36 96 -75
144 -135 36 -47 81 -92 99 -102 39 -21 92 -15 128 14 17 14 28 17 41 9 28 -14
80 7 135 57 63 57 84 102 85 179 0 77 -15 115 -123 301 -48 83 -118 206 -156
274 -65 118 -68 128 -74 205 -7 105 -32 149 -161 281 l-98 100 -23 135 -23
135 -30 0 c-26 0 -38 -12 -98 -95 -38 -52 -74 -96 -82 -98 -7 -2 -44 32 -81
74 -119 135 -128 141 -152 112z m-264 -411 c-2 -8 -34 -42 -73 -76 -202 -179
-408 -453 -545 -728 -135 -271 -219 -568 -235 -838 -10 -166 -15 -195 -32
-195 -13 0 -14 15 -8 114 l7 114 -56 7 c-40 5 -56 12 -56 23 0 12 10 14 60 9
l60 -7 0 33 c0 17 12 88 25 157 14 69 25 126 25 127 0 0 -23 6 -50 13 -33 8
-50 17 -50 27 0 12 7 14 38 8 73 -15 73 -15 91 50 10 33 32 99 49 146 18 47
32 88 32 91 0 3 -20 11 -45 18 -32 9 -45 18 -45 31 0 17 2 17 53 0 l52 -18 66
128 67 127 -49 21 c-46 19 -57 30 -43 44 3 3 29 -3 57 -14 27 -11 53 -16 57
-12 20 24 140 204 140 211 0 5 -16 16 -35 25 -34 16 -42 27 -29 40 3 3 26 -3
51 -14 l45 -19 22 27 c11 15 49 59 83 98 l61 70 -39 26 c-32 21 -37 28 -26 37
10 9 22 5 50 -14 l38 -25 82 75 c77 72 112 93 105 63z m692 -113 c80 -44 121
-136 82 -184 -17 -21 -29 -25 -70 -25 -84 0 -144 60 -146 143 -1 27 -7 56 -14
65 -39 47 63 47 148 1z m-500 -381 c0 -67 23 -167 54 -237 14 -32 26 -61 26
-65 0 -4 -29 -15 -64 -24 -94 -25 -212 -21 -203 7 2 7 26 10 63 8 32 -2 79 3
103 10 l44 13 -39 27 c-88 59 -164 155 -164 208 0 11 7 20 15 20 8 0 15 -8 15
-18 0 -40 92 -149 156 -185 7 -4 4 18 -8 56 -10 34 -22 99 -25 145 -5 72 -4
82 11 82 12 0 16 -10 16 -47z m878 -211 c101 -98 122 -129 122 -183 0 -25 4
-29 28 -29 41 0 73 -11 69 -24 -2 -6 -18 -10 -35 -8 -16 2 -45 -3 -64 -11
l-33 -14 0 66 c0 76 -9 93 -91 159 -70 56 -129 142 -99 142 1 0 48 -44 103
-98z"/>
<path d="M1866 1919 c-30 -70 49 -161 125 -144 75 17 11 140 -89 170 -19 5
-25 1 -36 -26z"/>
</g>
</svg>
