<?xml version="1.0" standalone="no"?>
<!DOCTYPE svg PUBLIC "-//W3C//DTD SVG 20010904//EN"
 "http://www.w3.org/TR/2001/REC-SVG-20010904/DTD/svg10.dtd">
<svg version="1.0" xmlns="http://www.w3.org/2000/svg"
 width="272.000000pt" height="287.000000pt" viewBox="0 0 272.000000 287.000000"
 preserveAspectRatio="xMidYMid meet">

<g transform="translate(0.000000,287.000000) scale(0.100000,-0.100000)"
fill="#000000" stroke="none">
<path d="M768 2562 c-10 -2 -18 -7 -18 -10 0 -4 -9 -63 -20 -131 l-20 -124
-98 -101 c-123 -128 -165 -203 -163 -287 1 -71 -12 -100 -200 -429 -164 -287
-183 -353 -135 -455 24 -54 60 -89 131 -130 35 -21 47 -24 69 -15 22 8 31 6
48 -10 33 -31 105 -31 147 0 14 10 53 52 86 95 43 54 87 95 152 142 51 36 113
87 138 114 50 54 57 56 104 33 37 -18 92 -13 160 17 24 10 45 19 47 19 6 0 -5
-101 -18 -180 -20 -123 -90 -242 -210 -356 -29 -28 -118 -103 -198 -166 -80
-63 -166 -138 -192 -168 -43 -49 -108 -162 -108 -189 0 -8 278 -11 1050 -11
l1050 0 0 108 c0 163 -8 212 -37 225 l-23 10 25 27 c21 22 24 31 16 51 -5 13
-20 77 -32 143 -20 103 -26 120 -49 134 -14 9 -27 17 -29 19 -2 2 4 12 13 22
17 19 17 22 1 73 -50 151 -88 238 -106 238 -24 0 -32 15 -18 38 9 15 6 28 -16
73 -64 127 -106 189 -127 189 -16 0 -19 5 -14 23 6 25 -7 48 -96 170 -39 52
-56 67 -75 67 -21 0 -24 4 -19 23 4 19 -10 40 -80 115 -62 67 -92 92 -110 92
-18 0 -24 5 -24 22 0 12 -17 36 -42 57 -89 77 -164 131 -181 131 -11 0 -49 -9
-86 -21 l-68 -20 -60 36 -60 36 -29 116 c-43 179 -57 182 -180 43 -48 -55 -92
-99 -97 -97 -5 1 -39 45 -75 96 -65 92 -89 111 -124 103z m86 -116 c52 -71 51
-85 -2 -86 -12 0 -38 -7 -57 -14 -41 -17 -39 -22 -23 91 7 47 16 82 22 80 6
-2 33 -34 60 -71z m332 47 c10 -48 54 -217 57 -219 1 -1 34 -21 72 -44 l70
-43 65 18 c36 10 74 20 85 22 26 6 189 -124 193 -154 2 -14 -8 -29 -31 -47
-19 -14 -37 -26 -41 -26 -4 0 -45 34 -92 76 -62 55 -89 73 -97 65 -8 -8 1 -21
34 -47 72 -60 216 -210 294 -308 248 -311 414 -662 490 -1031 18 -93 45 -326
45 -402 0 -43 3 -53 16 -53 15 0 16 12 10 114 l-7 114 57 7 c110 13 124 -6
124 -182 l0 -93 -1000 0 c-837 0 -1000 2 -1000 14 0 20 45 84 98 140 26 26
122 108 213 181 290 233 373 367 386 618 l6 109 26 -7 c45 -11 149 -18 176
-11 49 12 22 30 -42 27 -34 -1 -80 3 -103 9 l-41 11 64 50 c68 52 105 98 132
162 14 33 14 37 0 37 -8 0 -22 -18 -31 -40 -14 -36 -150 -177 -160 -167 -2 2
5 30 16 63 12 32 24 96 27 142 5 69 4 82 -9 82 -12 0 -16 -18 -21 -82 -12
-179 -87 -296 -201 -313 -31 -5 -52 -2 -74 9 -52 27 -71 20 -131 -42 -31 -32
-93 -84 -138 -115 -45 -32 -101 -81 -125 -109 -24 -28 -64 -73 -90 -101 -43
-45 -51 -49 -80 -43 -42 8 -66 31 -53 50 44 61 105 155 105 160 0 3 -6 6 -14
6 -8 0 -29 -24 -47 -52 -49 -77 -98 -128 -123 -128 -12 0 -44 16 -73 35 -70
47 -98 105 -90 186 8 69 22 99 157 334 57 99 125 223 152 275 46 87 49 99 44
146 -9 77 25 136 158 273 136 138 163 154 273 155 l81 1 62 70 c35 39 72 82
83 98 11 15 24 27 29 27 4 0 10 -12 14 -27z m697 -556 l70 -78 -19 -25 c-10
-15 -36 -33 -58 -42 l-38 -15 -27 34 c-14 18 -52 63 -84 99 l-57 64 37 23 c66
40 95 30 176 -60z m133 -158 c6 -5 36 -44 67 -88 51 -70 56 -82 47 -103 -10
-21 -78 -58 -107 -58 -7 0 -46 49 -87 110 l-74 110 41 24 c42 24 87 26 113 5z
m157 -248 c17 -7 39 -39 75 -108 49 -95 50 -99 34 -125 -13 -22 -79 -53 -113
-53 -3 0 -36 57 -72 126 l-65 126 46 21 c56 24 63 25 95 13z m164 -305 c9 -9
68 -157 87 -222 8 -28 -39 -71 -97 -89 l-46 -14 -16 57 c-9 31 -32 99 -51 151
-19 51 -32 96 -29 100 4 3 25 13 48 22 43 17 83 15 104 -5z m130 -393 c7 -26
19 -84 27 -128 l14 -80 -26 -27 c-21 -21 -41 -29 -84 -34 l-58 -7 0 30 c0 27
-30 206 -45 263 -5 23 -2 26 47 41 77 22 109 7 125 -58z"/>
<path d="M828 2045 c-62 -17 -104 -48 -128 -95 -46 -90 -14 -148 76 -137 78 8
145 94 129 165 -4 20 -1 33 10 42 8 7 15 19 15 26 0 17 -38 17 -102 -1z m42
-55 c32 -77 -58 -171 -139 -145 -16 5 -21 15 -21 38 0 47 34 95 83 117 56 26
62 25 77 -10z"/>
<path d="M455 1480 c-16 -23 -56 -63 -91 -90 -63 -51 -94 -102 -94 -155 0 -21
-5 -25 -27 -25 -45 0 -72 -11 -67 -25 4 -9 16 -12 38 -8 18 3 48 -2 68 -10
l37 -16 -10 25 c-26 69 -2 125 81 195 84 71 137 149 101 149 -5 0 -21 -18 -36
-40z"/>
</g>
</svg>
