<?xml version="1.0" standalone="no"?>
<!DOCTYPE svg PUBLIC "-//W3C//DTD SVG 20010904//EN"
 "http://www.w3.org/TR/2001/REC-SVG-20010904/DTD/svg10.dtd">
<svg version="1.0" xmlns="http://www.w3.org/2000/svg"
 width="278.000000pt" height="287.000000pt" viewBox="0 0 278.000000 287.000000"
 preserveAspectRatio="xMidYMid meet">

<g transform="translate(0.000000,287.000000) scale(0.100000,-0.100000)"
fill="#000000" stroke="none">
<path d="M1963 2509 c-22 -8 -39 -29 -118 -137 -25 -35 -50 -62 -54 -60 -5 2
-48 47 -96 101 -116 130 -132 129 -166 -15 -33 -142 -35 -144 -100 -184 l-60
-36 -68 21 c-38 12 -76 21 -84 21 -36 0 -227 -161 -227 -191 0 -13 -7 -19 -24
-19 -35 0 -192 -172 -188 -206 2 -19 -2 -24 -19 -24 -24 0 -38 -15 -118 -130
-48 -69 -57 -89 -50 -107 7 -20 5 -23 -15 -23 -18 0 -32 -17 -68 -82 -86 -155
-89 -162 -72 -186 14 -20 13 -22 -12 -28 -29 -7 -43 -36 -99 -196 -34 -97 -34
-97 -14 -121 l19 -25 -30 -11 c-17 -5 -30 -14 -30 -18 0 -4 -13 -71 -29 -148
l-29 -140 21 -23 21 -23 -27 -22 c-27 -22 -27 -24 -34 -174 l-6 -153 1056 0
c582 0 1057 2 1057 5 0 3 -14 35 -32 70 -44 90 -119 170 -288 304 -178 142
-221 181 -275 251 -84 109 -121 214 -132 368 l-6 86 27 -21 c15 -12 52 -27 82
-33 47 -10 62 -9 103 6 l49 17 53 -55 c30 -30 91 -80 137 -112 46 -32 102 -81
125 -109 93 -111 120 -137 153 -146 38 -11 87 0 114 24 12 11 24 13 41 6 47
-17 166 68 200 144 24 52 24 132 1 198 -10 28 -71 142 -134 252 -189 327 -198
347 -198 419 0 94 -39 164 -163 293 l-101 104 -18 97 c-9 53 -17 111 -18 129
0 37 -24 55 -57 42z m31 -134 c8 -49 14 -91 12 -92 -2 -2 -19 4 -39 12 -20 8
-47 15 -59 15 -49 0 -48 13 10 95 30 43 57 75 58 70 2 -6 10 -50 18 -100z
m-313 -3 l87 -98 78 0 c106 0 143 -20 274 -153 128 -129 160 -186 160 -280 0
-73 11 -97 219 -461 61 -107 116 -212 122 -235 29 -106 -6 -198 -96 -251 -73
-42 -76 -41 -201 132 -12 16 -25 25 -30 21 -9 -9 14 -52 63 -116 39 -52 39
-71 0 -89 -41 -20 -80 -1 -129 62 -73 92 -107 126 -191 185 -45 33 -107 84
-137 115 -59 61 -80 67 -132 40 -39 -20 -103 -12 -149 19 -64 43 -113 157
-125 293 -5 56 -10 74 -22 74 -13 0 -14 -12 -8 -79 3 -43 15 -105 26 -137 10
-32 17 -60 15 -62 -6 -6 -79 53 -113 92 -17 19 -36 51 -43 70 -7 20 -19 36
-26 36 -51 0 52 -149 150 -217 53 -37 36 -48 -73 -48 -62 0 -91 -4 -95 -12 -2
-8 7 -16 21 -19 27 -7 145 0 180 11 20 6 21 2 27 -98 8 -130 42 -242 99 -329
55 -83 188 -215 318 -315 150 -115 208 -170 252 -237 21 -33 38 -63 38 -68 0
-4 -452 -8 -1005 -8 l-1005 0 1 83 c1 180 20 208 125 191 l57 -9 -2 -98 c-1
-54 -5 -105 -8 -113 -3 -8 1 -14 10 -14 18 0 27 42 27 124 0 186 63 485 150
712 80 210 252 498 408 684 43 52 130 144 192 203 72 70 109 112 102 119 -8 8
-33 -11 -154 -120 l-27 -24 -34 21 c-53 33 -54 58 -5 100 66 57 141 111 153
111 7 0 38 -9 70 -20 32 -11 65 -20 72 -20 8 0 46 18 84 41 76 46 75 43 114
212 10 42 21 77 24 77 4 0 45 -44 92 -98z m-627 -423 c20 -12 36 -23 36 -27 0
-3 -21 -28 -48 -56 -26 -28 -64 -71 -84 -95 l-36 -45 -42 19 c-39 18 -60 40
-60 64 0 6 32 45 71 86 80 84 101 91 163 54z m-199 -224 c22 -11 42 -20 44
-22 2 -1 -32 -54 -74 -117 l-77 -114 -47 19 c-46 20 -71 42 -71 65 0 6 27 49
60 95 43 61 67 86 87 90 33 8 27 9 78 -16z m-176 -256 c28 -12 50 -25 49 -29
-2 -3 -30 -61 -63 -128 -66 -134 -64 -133 -145 -94 -61 30 -61 56 0 166 36 66
59 96 74 99 11 2 24 5 27 6 4 0 30 -9 58 -20z m-129 -294 c19 -7 34 -17 33
-21 -1 -5 -25 -74 -52 -154 -41 -118 -53 -144 -67 -142 -50 10 -89 30 -107 54
-23 31 -20 47 34 190 39 101 57 109 159 73z m-80 -360 c0 -7 -9 -57 -19 -111
-11 -54 -23 -121 -26 -148 l-7 -49 -56 7 c-62 7 -102 35 -102 70 0 12 9 72 21
134 21 109 22 113 52 126 26 10 41 10 84 -3 29 -8 53 -20 53 -26z"/>
<path d="M1837 1996 c-4 -10 1 -21 11 -27 13 -8 16 -21 14 -50 -2 -22 1 -53 8
-70 36 -86 163 -119 206 -53 14 21 15 31 5 64 -24 79 -91 130 -192 145 -37 6
-47 4 -52 -9z m145 -52 c54 -28 93 -108 68 -139 -24 -28 -106 -11 -139 28 -24
30 -30 73 -14 106 17 34 27 34 85 5z"/>
<path d="M2265 1460 c-10 -17 18 -52 99 -125 87 -78 101 -105 93 -180 l-6 -55
31 16 c21 11 43 14 70 10 29 -5 38 -3 38 8 0 17 -22 26 -66 26 -32 0 -34 2
-34 35 0 52 -20 82 -105 159 -42 38 -82 79 -87 92 -12 26 -23 30 -33 14z"/>
</g>
</svg>
