<?xml version="1.0" standalone="no"?>
<!DOCTYPE svg PUBLIC "-//W3C//DTD SVG 20010904//EN"
 "http://www.w3.org/TR/2001/REC-SVG-20010904/DTD/svg10.dtd">
<svg version="1.0" xmlns="http://www.w3.org/2000/svg"
 width="222.000000pt" height="282.000000pt" viewBox="0 0 222.000000 282.000000"
 preserveAspectRatio="xMidYMid meet">

<g transform="translate(0.000000,282.000000) scale(0.100000,-0.100000)"
fill="#000000" stroke="none">
<path d="M1087 2600 c-69 -12 -165 -61 -216 -110 -98 -97 -135 -193 -129 -336
3 -79 8 -100 38 -160 20 -41 55 -90 86 -120 l52 -51 -102 -17 c-104 -17 -199
-54 -210 -82 -22 -56 88 -101 316 -129 l46 -6 7 -85 c8 -95 0 -346 -16 -469
-13 -100 -41 -223 -68 -296 l-21 -56 -81 -21 c-210 -57 -378 -191 -379 -304
l0 -28 755 0 755 0 0 24 c0 34 -33 106 -64 138 -75 78 -189 135 -352 178 -38
9 -44 15 -62 63 -53 133 -80 308 -89 567 -3 107 -3 216 1 242 l7 47 57 6 c365
40 416 158 92 211 l-102 17 35 31 c95 83 147 200 147 330 0 208 -155 387 -362
416 -71 11 -75 11 -141 0z"/>
</g>
</svg>
