<?xml version="1.0" standalone="no"?>
<!DOCTYPE svg PUBLIC "-//W3C//DTD SVG 20010904//EN"
 "http://www.w3.org/TR/2001/REC-SVG-20010904/DTD/svg10.dtd">
<svg version="1.0" xmlns="http://www.w3.org/2000/svg"
 width="205.000000pt" height="271.000000pt" viewBox="0 0 205.000000 271.000000"
 preserveAspectRatio="xMidYMid meet">

<g transform="translate(0.000000,271.000000) scale(0.100000,-0.100000)"
fill="#000000" stroke="none">
<path d="M1013 2390 c-162 -23 -310 -162 -349 -325 -35 -151 0 -282 106 -398
l50 -55 -27 -6 c-16 -3 -48 -8 -73 -11 -63 -9 -140 -34 -172 -57 -41 -28 -38
-72 5 -98 45 -28 85 -39 221 -58 l118 -17 -5 -255 c-5 -282 -24 -424 -73 -560
-14 -41 -27 -76 -28 -77 -1 -2 -42 -14 -90 -28 -200 -58 -324 -148 -361 -263
-14 -42 -15 -55 -5 -67 11 -13 109 -15 755 -15 592 0 745 3 753 13 13 15 3 67
-20 112 -52 99 -192 182 -395 235 l-42 11 -30 92 c-51 160 -63 257 -68 543
l-5 261 73 7 c218 22 323 71 292 139 -19 40 -66 57 -271 94 -22 3 -21 7 27 58
93 103 133 228 114 355 -39 247 -252 405 -500 370z m243 -76 c193 -98 274
-332 182 -523 -23 -46 -109 -140 -161 -174 -41 -27 -21 -43 64 -51 141 -13
275 -53 266 -79 -6 -19 -136 -55 -248 -68 -57 -6 -108 -15 -112 -19 -16 -14
-10 -446 8 -585 17 -128 50 -263 84 -341 18 -39 20 -41 107 -64 94 -25 212
-80 266 -125 41 -34 88 -102 88 -127 0 -17 -26 -18 -715 -18 -809 0 -743 -8
-686 81 47 75 181 152 331 190 41 11 80 26 86 34 34 46 85 253 103 417 12 110
15 517 3 534 -4 6 -41 14 -82 18 -149 15 -285 54 -277 80 6 19 131 55 234 67
115 14 139 27 97 55 -16 11 -56 46 -90 79 -82 82 -108 146 -108 270 0 81 3 97
31 158 38 80 110 154 186 191 101 50 244 50 343 0z"/>
</g>
</svg>
