<?xml version="1.0" standalone="no"?>
<!DOCTYPE svg PUBLIC "-//W3C//DTD SVG 20010904//EN"
 "http://www.w3.org/TR/2001/REC-SVG-20010904/DTD/svg10.dtd">
<svg version="1.0" xmlns="http://www.w3.org/2000/svg"
 width="286.000000pt" height="300.000000pt" viewBox="0 0 286.000000 300.000000"
 preserveAspectRatio="xMidYMid meet">

<g transform="translate(0.000000,300.000000) scale(0.100000,-0.100000)"
fill="#000000" stroke="none">
<path d="M1343 2420 c-42 -25 -63 -68 -63 -126 0 -43 4 -51 44 -89 l44 -42
-69 -419 c-38 -231 -69 -420 -69 -422 0 -2 -7 -2 -16 0 -10 2 -71 130 -169
351 l-153 349 24 35 c16 25 24 50 24 81 0 38 -5 50 -39 83 -33 33 -45 39 -82
39 -147 0 -187 -190 -52 -246 23 -10 33 -21 33 -37 1 -12 16 -179 34 -372 18
-192 31 -353 27 -357 -3 -4 -11 -8 -17 -10 -6 -2 -117 125 -246 281 l-235 284
15 30 c45 90 -48 204 -147 177 -72 -19 -112 -85 -96 -159 9 -41 70 -91 111
-91 18 0 34 -6 37 -12 3 -7 63 -164 135 -348 71 -184 155 -398 186 -475 73
-181 88 -295 71 -526 l-8 -106 104 -41 c113 -44 257 -83 384 -103 118 -20 418
-17 535 4 197 36 461 122 479 156 5 9 5 39 0 66 -4 28 -8 123 -8 213 l-1 162
186 468 c102 257 191 483 198 502 11 29 19 36 47 38 83 8 134 91 107 173 -32
99 -173 113 -229 22 -17 -28 -20 -43 -15 -81 4 -26 8 -54 9 -63 2 -14 -449
-577 -463 -578 -3 -1 -11 3 -18 8 -12 7 -8 68 17 352 40 437 34 406 76 423 45
19 75 69 75 124 0 34 -6 49 -33 78 -67 73 -185 50 -215 -41 -15 -46 -8 -86 22
-123 l22 -27 -155 -353 c-112 -254 -160 -352 -170 -350 -12 2 -31 98 -83 423
l-68 419 30 24 c59 46 75 112 44 178 -33 69 -133 96 -201 54z m152 -52 c36
-42 34 -96 -4 -137 -16 -17 -36 -31 -45 -31 -9 0 -16 -7 -16 -16 0 -22 141
-888 145 -893 10 -10 95 -13 95 -3 0 6 72 175 160 375 88 200 160 369 160 374
0 6 -7 13 -14 16 -25 10 -48 65 -41 98 22 100 175 86 175 -16 0 -45 -45 -95
-84 -95 -14 0 -26 -6 -26 -12 0 -7 -16 -187 -36 -401 -20 -213 -34 -393 -31
-400 3 -7 22 -20 43 -28 l39 -15 256 310 256 311 -18 24 c-11 13 -19 38 -19
56 0 92 124 125 166 44 18 -36 18 -55 -3 -90 -19 -32 -43 -43 -89 -40 -31 1
-32 1 -79 -121 -26 -68 -115 -293 -197 -500 l-149 -377 -72 25 c-98 34 -252
70 -367 85 -117 16 -445 16 -560 0 -116 -16 -301 -59 -378 -88 -36 -13 -66
-22 -68 -20 -4 3 -286 728 -354 909 l-33 87 -38 -1 c-53 -1 -86 24 -95 69 -13
72 44 125 111 103 63 -21 82 -77 46 -136 l-18 -30 234 -285 c129 -156 245
-295 258 -308 l24 -25 41 19 c39 18 41 20 36 54 -3 20 -19 194 -36 386 -35
398 -35 395 -56 395 -29 0 -71 29 -83 58 -25 59 19 122 86 122 79 0 114 -102
53 -154 l-30 -25 166 -378 c91 -208 168 -380 170 -382 1 -2 23 0 46 3 l44 7
72 447 c40 246 73 450 72 455 0 4 -7 7 -16 7 -8 0 -29 13 -45 29 -22 23 -29
39 -29 69 0 98 114 143 175 70z m190 -1499 c109 -12 241 -41 353 -77 l82 -26
0 -138 c0 -76 -2 -138 -3 -138 -2 0 -30 9 -62 20 -80 27 -209 57 -330 76 -135
22 -444 22 -583 0 -116 -18 -285 -57 -351 -80 -24 -9 -49 -16 -56 -16 -8 0
-14 35 -18 119 -4 65 -9 125 -13 134 -7 18 66 48 205 83 239 59 500 74 776 43z
m45 -324 c111 -17 194 -36 306 -71 86 -26 94 -34 94 -95 l0 -26 -86 34 c-196
78 -399 108 -664 100 -237 -7 -418 -42 -598 -114 -35 -14 -66 -22 -69 -19 -3
3 -2 24 3 47 9 41 11 43 79 66 133 45 326 82 505 97 81 7 333 -5 430 -19z
m-70 -110 c170 -20 432 -93 431 -120 0 -13 -132 -61 -250 -91 -248 -64 -512
-70 -776 -18 -103 20 -329 94 -318 105 14 13 135 55 238 82 212 55 445 69 675
42z"/>
<path d="M1360 766 l-44 -24 52 -26 52 -26 52 26 52 26 -44 24 c-25 13 -52 23
-60 23 -8 0 -35 -10 -60 -23z"/>
<path d="M941 708 l-44 -32 53 -18 52 -18 44 31 c24 16 44 32 44 35 0 6 -37
20 -75 28 -24 5 -39 0 -74 -26z"/>
<path d="M1795 726 c-22 -7 -40 -16 -40 -20 0 -5 18 -21 40 -37 l40 -29 54 18
54 18 -44 32 c-47 35 -47 35 -104 18z"/>
</g>
</svg>
