<?xml version="1.0" standalone="no"?>
<!DOCTYPE svg PUBLIC "-//W3C//DTD SVG 20010904//EN"
 "http://www.w3.org/TR/2001/REC-SVG-20010904/DTD/svg10.dtd">
<svg version="1.0" xmlns="http://www.w3.org/2000/svg"
 width="283.000000pt" height="283.000000pt" viewBox="0 0 283.000000 283.000000"
 preserveAspectRatio="xMidYMid meet">

<g transform="translate(0.000000,283.000000) scale(0.100000,-0.100000)"
fill="#000000" stroke="none">
<path d="M1340 2422 c-53 -52 -61 -101 -29 -162 13 -25 34 -49 47 -55 12 -5
22 -14 22 -20 0 -5 -30 -198 -67 -428 -64 -394 -69 -418 -88 -415 -16 2 -50
72 -172 348 -84 190 -153 349 -153 354 0 6 10 20 21 32 50 53 28 154 -42 190
-79 40 -179 -20 -179 -108 0 -56 29 -103 74 -119 42 -15 35 25 77 -433 31
-340 31 -355 -1 -356 -5 0 -437 518 -468 562 -9 12 -10 23 -4 31 33 43 19 121
-29 162 -24 19 -42 25 -79 25 -61 0 -105 -33 -120 -91 -21 -75 44 -159 122
-159 21 0 32 -22 122 -258 54 -141 141 -364 192 -494 77 -193 97 -255 109
-335 17 -115 19 -191 4 -288 -12 -85 -9 -88 118 -135 190 -69 413 -110 603
-110 158 0 431 55 680 137 83 27 85 29 82 58 -1 17 -5 118 -8 225 l-6 195 175
440 c96 242 185 468 198 503 20 52 28 62 47 62 46 0 90 30 112 75 18 37 20 49
10 84 -15 58 -59 91 -122 91 -43 0 -54 -4 -83 -33 -42 -42 -53 -93 -31 -138
12 -25 13 -35 3 -48 -32 -45 -461 -561 -466 -561 -3 0 -12 4 -20 9 -13 8 -10
61 19 386 l35 376 35 17 c43 21 80 75 80 116 0 45 -34 95 -77 113 -53 22 -101
11 -140 -32 -42 -45 -45 -104 -9 -158 l25 -36 -153 -348 c-118 -267 -158 -349
-172 -351 -18 -3 -25 30 -88 425 -57 352 -67 428 -55 432 31 10 68 63 74 106
13 85 -52 155 -145 155 -36 0 -48 -6 -80 -38z m216 -1482 c269 -18 571 -96
531 -136 -3 -4 -41 5 -84 20 -353 115 -803 115 -1156 0 -80 -27 -124 -26 -96
0 46 44 355 109 564 119 33 2 69 4 80 5 11 1 83 -3 161 -8z m-81 -152 c25 -12
45 -25 45 -28 0 -3 -20 -16 -45 -28 l-45 -22 -45 22 c-25 12 -45 25 -45 28 0
5 72 45 87 49 1 1 23 -9 48 -21z m-413 -46 l48 -17 -48 -33 -48 -32 -53 16
c-29 8 -51 17 -48 20 18 19 84 63 92 63 6 0 31 -8 57 -17z m844 -12 c24 -17
44 -33 44 -35 0 -2 -23 -11 -50 -20 l-51 -17 -49 34 -48 33 46 17 c62 22 57
22 108 -12z m-234 -106 c121 -17 241 -42 353 -76 77 -23 101 -36 87 -50 -5 -5
-58 5 -128 25 -382 111 -692 107 -1136 -14 -85 -23 -116 -22 -87 5 15 14 151
53 283 82 209 45 436 55 628 28z m-53 -104 c127 -12 222 -30 349 -66 123 -36
179 -61 164 -76 -9 -9 -34 -4 -104 20 -206 69 -342 92 -566 92 -228 0 -428
-33 -619 -102 -78 -28 -113 -29 -95 -2 4 5 48 24 97 42 238 83 510 115 774 92z"/>
</g>
</svg>
