<?xml version="1.0" standalone="no"?>
<!DOCTYPE svg PUBLIC "-//W3C//DTD SVG 20010904//EN"
 "http://www.w3.org/TR/2001/REC-SVG-20010904/DTD/svg10.dtd">
<svg version="1.0" xmlns="http://www.w3.org/2000/svg"
 width="222.000000pt" height="305.000000pt" viewBox="0 0 222.000000 305.000000"
 preserveAspectRatio="xMidYMid meet">

<g transform="translate(0.000000,305.000000) scale(0.100000,-0.100000)"
fill="#000000" stroke="none">
<path d="M224 2609 c-17 -19 -19 -41 -22 -219 l-3 -199 48 -43 c26 -24 78 -72
115 -107 l68 -64 0 -549 0 -548 -85 -94 -85 -94 0 -100 0 -100 -29 -7 c-49
-11 -65 -38 -69 -120 -5 -88 9 -138 44 -154 18 -8 263 -11 898 -11 1036 0 926
-17 926 144 0 112 -7 127 -62 141 l-28 7 0 100 0 100 -85 93 -85 92 0 549 -1
549 113 110 113 110 -5 203 c-5 187 -7 205 -24 218 -15 11 -59 14 -193 14
l-172 0 -3 -97 -3 -98 -75 -26 -75 -27 -68 25 -67 25 0 99 0 99 -210 0 -210 0
0 -99 0 -99 -67 -24 -66 -25 -79 26 -78 25 0 98 0 98 -178 0 c-169 0 -180 -1
-198 -21z m338 -106 l3 -98 95 -31 95 -31 87 31 88 31 0 98 0 97 168 -2 167
-3 3 -95 3 -96 87 -30 87 -31 95 32 95 32 3 97 3 97 149 -3 c81 -2 152 -7 157
-11 4 -5 9 -89 11 -188 l3 -179 -860 0 -861 0 0 174 c0 145 3 177 16 190 13
13 42 16 159 16 l144 0 3 -97z m1274 -408 l-88 -85 -652 0 -651 0 -85 85 -85
85 825 0 825 -1 -89 -84z m-106 -665 l0 -540 -635 0 -635 0 0 540 0 540 635 0
635 0 0 -540z m79 -652 l64 -73 -768 -3 c-423 -1 -770 0 -773 2 -2 3 24 37 59
75 l63 71 646 0 646 0 63 -72z m91 -203 l0 -85 -800 0 -800 0 0 85 0 85 800 0
800 0 0 -85z m80 -135 c18 -11 26 -133 11 -172 l-11 -28 -879 0 c-1011 0 -901
-13 -901 109 0 50 4 74 16 85 14 14 107 16 882 16 514 0 873 -4 882 -10z"/>
</g>
</svg>
