<?xml version="1.0" standalone="no"?>
<!DOCTYPE svg PUBLIC "-//W3C//DTD SVG 20010904//EN"
 "http://www.w3.org/TR/2001/REC-SVG-20010904/DTD/svg10.dtd">
<svg version="1.0" xmlns="http://www.w3.org/2000/svg"
 width="231.000000pt" height="278.000000pt" viewBox="0 0 231.000000 278.000000"
 preserveAspectRatio="xMidYMid meet">

<g transform="translate(0.000000,278.000000) scale(0.100000,-0.100000)"
fill="#000000" stroke="none">
<path d="M294 2592 c-29 -19 -34 -56 -34 -240 l0 -190 110 -102 110 -103 0
-556 -1 -556 -84 -95 -85 -95 0 -96 c0 -95 0 -97 -25 -103 -53 -13 -65 -38
-65 -135 0 -74 3 -92 21 -115 l20 -26 890 0 c1044 0 929 -17 929 138 0 90 -2
100 -23 120 -13 12 -33 22 -45 22 -21 0 -22 4 -22 101 l0 101 -85 95 -85 95 0
552 0 551 109 100 109 100 1 206 c1 187 -1 207 -17 222 -16 15 -45 17 -195 17
l-177 0 0 -98 0 -98 -78 -25 -77 -26 -68 25 -67 25 0 98 0 99 -205 0 -205 0 0
-98 0 -97 -72 -26 -72 -26 -78 26 -78 25 0 98 0 98 -172 0 c-95 0 -178 -4
-184 -8z m1704 -419 c3 -10 -167 -13 -827 -13 -733 0 -831 2 -831 15 0 13 96
15 827 13 650 -2 827 -6 831 -15z m-243 -213 c0 -13 -75 -15 -604 -18 -359 -1
-609 2 -614 7 -29 29 12 31 611 29 532 -3 607 -5 607 -18z m-5 -1115 c0 -13
-75 -15 -615 -15 -338 0 -615 4 -615 8 0 5 3 12 7 15 3 4 280 7 615 7 534 0
608 -2 608 -15z m165 -190 c0 -7 -264 -11 -767 -13 -680 -2 -768 0 -768 13 0
13 88 15 768 13 503 -2 767 -6 767 -13z m3 -212 c3 -10 -156 -13 -772 -13
-427 0 -776 4 -776 8 0 5 3 12 7 15 3 4 351 6 771 5 602 -2 766 -6 770 -15z"/>
</g>
</svg>
